<svg xmlns="http://www.w3.org/2000/svg" viewBox="0 0 512 512">
    <!-- FontAwesome fa-balance-scale style icon -->
    <path fill="#0ea5e9" d="M256 0c-17.7 0-32 14.3-32 32V66.8c-14.8-14-35.3-22.8-58-22.8c-44.2 0-80 35.8-80 80v16H48c-26.5 0-48 21.5-48 48v16c0 13.3 10.7 24 24 24h66c-3.9 14.6-6 30-6 46v20.4L20.8 322c-15.6 18.2-11.8 45.4 7.6 59s44.2 9.2 59.8-9L135.5 316.5c3.2-3.8 5.6-8.2 7-12.9L160 236V294c0 16-2.1 31.4-6 46h66c13.3 0 24-10.7 24-24V304c0-26.5-21.5-48-48-48h-38v-16c0-44.2-35.8-80-80-80c-22.7 0-43.2 8.8-58 22.8V32c0-17.7-14.3-32-32-32zM320 224v16c-44.2 0-80 35.8-80 80v16h-38c-26.5 0-48 21.5-48 48v24c0 13.3 10.7 24 24 24h66c-3.9 14.6-6 30-6 46v20.4L188.8 534c-15.6 18.2-11.8 45.4 7.6 59s44.2 9.2 59.8-9L303.5 528.5c3.2-3.8 5.6-8.2 7-12.9L320 448V506c0 16-2.1 31.4-6 46h66c13.3 0 24-10.7 24-24V416c0-26.5-21.5-48-48-48h-38v-16c0-44.2-35.8-80-80-80z"/>
</svg>
